# xmcd
#
# Track frame offsets:
#	150
#	3542
#	10682
#	18052
#	23943
#	30636
#	36924
#	45493
#	50551
#	55460
#	62243
#	66652
#	68694
#	71661
#	80540
#	87175
#	91420
#	97931
#	101984
#	108389
#	114314
#	120265
#	128321
#	128779
#	137195
#	143345
#	151298
#	155440
#	159652
#	163402
#	169834
#	171983
#	176363
#	182329
#	188913
#	191875
#	195842
#	200019
#	204144
#	207519
#	208194
#	216444
#	219744
#	224769
#	231369
#	235569
#	239994
#	243294
#	245844
#	249294
#	253644
#	260244
#	265794
#	272394
#	276179
#	280944
#	285219
#	288594
#
# Disc length: 3955 seconds
#
# Revision: 0
# Processed by: cddbd v1.5.2PL0 Copyright (c) Steve Scherf et al.
# Submitted via: EasyCDDAExtractor 9.0.0.1
#
DISCID=620f713a
DTITLE=Various Artist - Planeta Super Mix Vol 12
DYEAR=1900
DGENRE=
TTITLE0=Intro - Intro
TTITLE1=Bob Sinclair - Give A Lil' Love
TTITLE2=Ramada - Stand Up
TTITLE3=Kate Ryan - Voyage, Voyage
TTITLE4=Akcent - Phonesex
TTITLE5=Danzel - You Spin Me Around
TTITLE6=Crazy Loop - Crazy Loop
TTITLE7=September - Cry For You
TTITLE8=ATB - Feel Alive
TTITLE9=Bellini - Let's Go To Rio
TTITLE10=Velvet - Fix Me
TTITLE11=Infernal - Ten Miles
TTITLE12=Shaun Baker - V.I.P
TTITLE13=Vinylshakerz - Forget Me Nots
TTITLE14=Shine - Bootyluv
TTITLE15=Royal Gigolos - Tell It To My Heart
TTITLE16=Hi Tack - Let's Dance
TTITLE17=Master Blaster - Can Delight
TTITLE18=Ozi - Juicy Pen
TTITLE19=Liquid Spill - Maria Magdalena
TTITLE20=Starting Rock feat. Dive Avari - Movin' On
TTITLE21=Martin Drafts - Once In A life
TTITLE22=Intro 2 - Intro 2
TTITLE23=Good Fader - Goodfather Love Theme
TTITLE24=Cascada - A Neverending Dream
TTITLE25=C Bool - Got 2 Know
TTITLE26=Erik Vee - I Can't Stop Mysef
TTITLE27=Headspinz feat. Lizzy Pattinson - Just Breathe
TTITLE28=Eave Allstars - The Logical Song
TTITLE29=Milk Inc - Sunrise
TTITLE30=Megara vs. DJ Lee - Blow The Mind
TTITLE31=The Jumpers - Blue (Da Ba Dee)
TTITLE32=Clubbers feat. Silvy - Time
TTITLE33=Speakerz - Love U More
TTITLE34=Ralph Novel - Stardust
TTITLE35=FandMartinengo feat. TK - Let's Go Out Tonight
TTITLE36=Ceoma feat. Therlax - Full Moon
TTITLE37=Warp Brothers - Push
TTITLE38=Dj Bomba - Bass Brummt
TTITLE39=Intro 3 - Intro 3
TTITLE40=Blue Ray feat. Jimmy Sommersville - You and Me
TTITLE41=Corenell - Keep On Jumping
TTITLE42=Porno - Gonna Shake It
TTITLE43=Seamus Haji feat. Kay Jay - Last Night A DJ Saved My Life
TTITLE44=The Homeboys feat. Nari - Jump Around
TTITLE45=Dajo feat. Jahmark - Waiting For The Sun
TTITLE46=Alexandra Price - Rising High
TTITLE47=Dj Nick - Summer Samba
TTITLE48=Michael Mind - Ride Like A Wind
TTITLE49=Masters At Work - Work
TTITLE50=Noterini - I Don't Want You Anymore
TTITLE51=Real - Juicy Fruit
TTITLE52=Soul Survivors - Bring It Back
TTITLE53=Danz - Skye'N Sugastarz
TTITLE54=Spoonface - Too Fast
TTITLE55=PhoneJa and Cosi Cosi  - Sensual
TTITLE56=Soulmaniax - Sensuality
TTITLE57=Locktown and Alexandra Prince - Alive
EXTD=
EXTT0=
EXTT1=
EXTT2=
EXTT3=
EXTT4=
EXTT5=
EXTT6=
EXTT7=
EXTT8=
EXTT9=
EXTT10=
EXTT11=
EXTT12=
EXTT13=
EXTT14=
EXTT15=
EXTT16=
EXTT17=
EXTT18=
EXTT19=
EXTT20=
EXTT21=
EXTT22=
EXTT23=
EXTT24=
EXTT25=
EXTT26=
EXTT27=
EXTT28=
EXTT29=
EXTT30=
EXTT31=
EXTT32=
EXTT33=
EXTT34=
EXTT35=
EXTT36=
EXTT37=
EXTT38=
EXTT39=
EXTT40=
EXTT41=
EXTT42=
EXTT43=
EXTT44=
EXTT45=
EXTT46=
EXTT47=
EXTT48=
EXTT49=
EXTT50=
EXTT51=
EXTT52=
EXTT53=
EXTT54=
EXTT55=
EXTT56=
EXTT57=
PLAYORDER=
